<svg xmlns="http://www.w3.org/2000/svg"
     width="400px" height="400px"
     viewBox="0 0 205 205">
  <path id="svg-schultuete"
        fill="black" stroke="none" stroke-width="0"
        d="M 190.00,40.00
           C 190.00,40.00 170.00,39.00 170.00,39.00
             178.08,50.85 190.33,55.69 203.00,61.00
             203.00,61.00 200.00,64.00 200.00,64.00
             200.00,64.00 185.96,57.31 185.96,57.31
             185.96,57.31 173.00,49.00 173.00,49.00
             173.00,49.00 183.90,64.00 183.90,64.00
             187.53,68.08 190.71,68.54 191.00,74.00
             191.00,74.00 188.00,74.00 188.00,74.00
             188.00,74.00 181.02,66.39 181.02,66.39
             174.54,59.10 172.04,53.57 168.00,45.00
             168.00,45.00 171.00,97.00 171.00,97.00
             164.77,93.99 157.19,83.16 152.13,77.61
             152.13,77.61 126.58,48.27 126.58,48.27
             126.58,48.27 110.00,29.00 110.00,29.00
             110.00,29.00 132.00,32.50 132.00,32.50
             132.00,32.50 167.00,39.00 167.00,39.00
             167.00,39.00 170.00,18.00 170.00,18.00
             175.75,20.76 187.06,34.14 190.00,40.00 Z
           M 12.48,167.00
           C 12.48,167.00 74.34,77.00 74.34,77.00
             74.34,77.00 95.28,47.00 95.28,47.00
             98.68,42.14 101.63,35.83 107.00,33.00
             107.00,33.00 151.37,84.73 151.37,84.73
             151.37,84.73 167.00,103.00 167.00,103.00
             167.00,103.00 152.09,110.64 152.09,110.64
             152.09,110.64 94.01,139.32 94.01,139.32
             94.01,139.32 85.91,143.97 85.91,143.97
             85.91,143.97 36.00,168.27 36.00,168.27
             36.00,168.27 0.00,186.00 0.00,186.00
             0.00,186.00 12.48,167.00 12.48,167.00 Z" />
</svg>
