<?xml version="1.0" encoding="utf-8"?>
<!-- Generator: Adobe Illustrator 24.1.1, SVG Export Plug-In . SVG Version: 6.00 Build 0)  -->
<svg version="1.1" id="Layer_1" xmlns="http://www.w3.org/2000/svg" xmlns:xlink="http://www.w3.org/1999/xlink" x="0px" y="0px"
	 viewBox="0 0 512 512" style="enable-background:new 0 0 512 512;" xml:space="preserve">
<g>
	<path d="M458.7,81.1L458.7,81.1c0-44.8-36.3-81.1-81.1-81.1c-44.8,0-81.1,36.3-81.1,81.1c0,40.3,29.3,73.7,67.8,80l0.5,0.1v37.3
		c0,28.3-22.9,51.2-51.2,51.2H151.5v-89.3c36.8-8.1,64-40.5,64-79.3c0-44.8-36.3-81.1-81.1-81.1C89.6,0,53.3,36.3,53.3,81.1
		c0,38.7,27.2,71.1,63.5,79.1l0.5,0.1v191.4c-36.8,8.1-64,40.5-64,79.3c0,44.8,36.3,81.1,81.1,81.1c44.8,0,81.1-36.3,81.1-81.1
		c0-38.7-27.1-71.1-63.5-79.1l-0.6-0.1v-67.9h162.1c47.1-0.1,85.3-38.2,85.3-85.3v-39.1C433.6,149.5,458.6,118.3,458.7,81.1
		L458.7,81.1z M87.5,81.1c0-25.9,21-46.9,46.9-46.9c25.9,0,46.9,21,46.9,46.9c0,25.9-21,46.9-46.9,46.9
		C108.5,128,87.5,107,87.5,81.1L87.5,81.1z M181.3,430.9c0,25.9-21,46.9-47,46.9c-25.9,0-46.9-21-46.9-46.9
		c0-25.9,21-46.9,46.9-46.9C160.3,384,181.3,405,181.3,430.9L181.3,430.9z M377.6,128c-25.9,0-47-21-47-46.9s21-46.9,47-46.9
		c25.9,0,46.9,21,46.9,46.9C424.5,107,403.5,128,377.6,128L377.6,128z"/>
</g>
</svg>
