<?xml version="1.0" encoding="utf-8"?>
<!-- Generated by IcoMoon.io -->
<!DOCTYPE svg PUBLIC "-//W3C//DTD SVG 1.1//EN" "http://www.w3.org/Graphics/SVG/1.1/DTD/svg11.dtd">
<svg version="1.1" xmlns="http://www.w3.org/2000/svg" xmlns:xlink="http://www.w3.org/1999/xlink" width="512" height="512" viewBox="0 0 512 512">
<g>
</g>
	<path d="M336.057 198.021h-80.057c-58.44 0-102.605 21.617-102.605 57.559h285.194c0.010-35.942-44.114-57.559-102.533-57.559z" fill="#000000" />
	<path d="M336.057 196.915h-80.057c-62.034 0-103.701 23.583-103.701 58.665v1.116h287.406v-1.116c0.010-35.082-41.646-58.665-103.649-58.665zM438.599 254.484h-285.194l1.106 1.095c0-33.762 40.786-56.443 101.488-56.443h80.056c60.682 0 101.438 22.681 101.438 56.443l1.106-1.095z" fill="#000000" />
	<path d="M497.039 139.602h-44.175v130.662h-394.23v-130.662h-43.684v232.775h43.684v-43.694h394.23v43.694h44.175z" fill="#000000" />
	<path d="M497.039 138.496h-45.271v131.758l1.096-1.096h-394.23l1.106 1.096v-131.758h-45.886v234.988h45.886v-44.82l-1.106 1.116h394.23l-1.096-1.116v44.82h46.367v-234.977h-1.096zM497.039 371.282h-44.175l1.116 1.096v-44.8h-396.442v44.8l1.096-1.096h-43.684l1.106 1.096v-232.775l-1.106 1.116h43.684l-1.096-1.116v131.778h396.442v-131.779l-1.116 1.116h44.175l-1.096-1.116v232.775l1.096-1.096z" fill="#000000" />
	<path d="M102.379 190.659c-17.756 0-32.45 14.285-32.45 32.44 0 18.596 14.695 32.481 32.451 32.481 18.585 0 33.321-13.875 33.321-32.481-0.010-18.155-14.736-32.44-33.321-32.44z" fill="#000000" />
	<path d="M102.379 189.542c-18.504 0-33.546 15.063-33.546 33.556 0 18.841 14.736 33.598 33.546 33.598 19.302 0 34.417-14.756 34.417-33.597 0-18.821-15.124-33.556-34.416-33.556zM134.584 223.099c0 17.899-13.855 31.375-32.215 31.375-17.572 0-31.344-13.783-31.344-31.375 0-17.285 14.059-31.345 31.344-31.345 18.064 0.010 32.215 13.762 32.215 31.345z" fill="#000000" />
</svg>
