<?xml version="1.0" encoding="utf-8"?>
<!-- Generator: Adobe Illustrator 19.0.0, SVG Export Plug-In . SVG Version: 6.00 Build 0)  -->
<svg version="1.1" id="Layer_1" xmlns="http://www.w3.org/2000/svg" xmlns:xlink="http://www.w3.org/1999/xlink" x="0px" y="0px"
	 viewBox="0 0 512 512" style="enable-background:new 0 0 512 512;" xml:space="preserve">
<g id="XMLID_1_">
	<path id="XMLID_7_" d="M411.5,352.8V198.3c0-16.8,0-48.4-11.2-74.5c-14-33.5-41-51.2-79.1-51.2h-88.4L278.3,27
		c6.5-6.5,6.5-16.8,0-22.3l0,0c-2.8-2.8-7.4-4.7-11.2-4.7c-4.7,0-8.4,1.9-11.2,4.7L193.6,67c-9.3-33.5-41-57.7-77.3-57.7
		c-43.8,0-80.1,36.3-80.1,80.1c0,19.5,7.4,38.2,19.5,53.1c11.2,13,26.1,21.4,42.8,25.1v186.2c-16.8,3.7-31.7,13-42.8,25.1
		c-13,14.9-19.5,33.5-19.5,52.1c0,43.8,36.3,80.1,80.1,80.1s80.1-36.3,80.1-80.1c0-19.5-7.4-39.1-20.5-54
		c-12.1-13-27-21.4-44.7-25.1V166.6c16.8-2.8,32.6-12.1,44.7-25.1c8.4-9.3,14.9-21.4,17.7-33.5l64.2,64.2c2.8,2.8,6.5,4.7,11.2,4.7
		s8.4-1.9,11.2-4.7c2.8-2.8,4.7-6.5,4.7-11.2c0-4.7-1.9-8.4-4.7-11.2l0,0l-46.5-45.6h88.4c23.3,0,38.2,8.4,47.5,27
		c9.3,19.5,11.2,47.5,11.2,67v154.5c-16.8,2.8-32.6,12.1-44.7,25.1c-13,14.9-20.5,33.5-20.5,54c0,43.8,36.3,80.1,80.1,80.1
		s80.1-36.3,80.1-80.1c0-19.5-7.4-38.2-19.5-53.1C443.1,365.8,428.2,356.5,411.5,352.8z M163.8,431c0,26.1-21.4,48.4-48.4,48.4
		C89.4,479.4,67,458,67,431s21.4-48.4,48.4-48.4C142.4,383.5,163.8,404.9,163.8,431z M115.4,135.9c-26.1,0-48.4-21.4-48.4-48.4
		s21.4-48.4,48.4-48.4c26.1,0,48.4,21.4,48.4,48.4S142.4,135.9,115.4,135.9z M394.7,479.4c-26.1,0-48.4-21.4-48.4-48.4
		s21.4-48.4,48.4-48.4c27,0,48.4,21.4,48.4,48.4C443.1,458,420.8,479.4,394.7,479.4z"/>
</g>
</svg>
